<?xml version="1.0" encoding="UTF-8"?>
<svg version="1.1" xmlns="http://www.w3.org/2000/svg" width="512" height="512">
<path d="M0 0 C0.74110016 -0.00100708 1.48220032 -0.00201416 2.24575806 -0.00305176 C18.35617664 0.01178389 32.75149496 2.45034787 48.125 7.25 C48.125 10.25 48.125 10.25 46.8856411 11.81939602 C46.30047029 12.38361798 45.71529949 12.94783995 45.11239624 13.52915955 C44.11098351 14.50640991 44.11098351 14.50640991 43.08934021 15.50340271 C41.97656456 16.56700768 41.97656456 16.56700768 40.84130859 17.65209961 C40.06756393 18.40379425 39.29381927 19.15548889 38.49662781 19.92996216 C36.81171962 21.56652919 35.12383866 23.20003979 33.43339157 24.83088493 C29.84437921 28.30049277 26.2818281 31.79673197 22.71755409 35.29171848 C16.07606852 41.80336989 9.42493829 48.30398665 2.7265625 54.75708008 C-1.92677306 59.24304107 -6.54513319 63.76251116 -11.14237595 68.30591011 C-12.9009331 70.03107735 -14.67214758 71.74344004 -16.45598221 73.4424572 C-18.9540043 75.82457259 -21.4050228 78.24708223 -23.85009766 80.68334961 C-24.968946 81.71962746 -24.968946 81.71962746 -26.11039734 82.77684021 C-29.14285151 85.8775957 -30.8609198 87.7815337 -30.90359306 92.23205662 C-30.4095825 95.31548851 -29.7180582 98.24489855 -28.875 101.25 C-28.6452951 102.39606216 -28.41559021 103.54212433 -28.17892456 104.72291565 C-27.97018707 105.6465239 -27.76144958 106.57013214 -27.54638672 107.52172852 C-27.30628876 108.59225967 -27.0661908 109.66279083 -26.81881714 110.76576233 C-26.56665436 111.87559982 -26.31449158 112.98543732 -26.0546875 114.12890625 C-25.79116486 115.30339828 -25.52764221 116.47789032 -25.25613403 117.68797302 C-24.42386805 121.39685694 -23.58745199 125.10478387 -22.75 128.8125 C-21.63960182 133.72966168 -20.53337573 138.6477347 -19.4296875 143.56640625 C-19.17347626 144.69446182 -18.91726501 145.8225174 -18.65328979 146.98475647 C-18.41949615 148.02691818 -18.18570251 149.0690799 -17.94482422 150.14282227 C-17.63410477 151.51749413 -17.63410477 151.51749413 -17.31710815 152.91993713 C-16.875 155.25 -16.875 155.25 -16.875 158.25 C-16.15775757 158.3612471 -15.44051514 158.4724942 -14.70153809 158.58711243 C-7.06909361 159.80984876 0.43848822 161.36834593 7.96875 163.10546875 C10.37232191 163.6507166 12.77596995 164.19562896 15.1796875 164.74023438 C18.92439745 165.59244976 22.66840166 166.44748283 26.41113281 167.30834961 C30.05357071 168.14455592 33.69839791 168.96957404 37.34375 169.79296875 C38.46664429 170.05434128 39.58953857 170.31571381 40.74645996 170.58500671 C41.78854614 170.81887589 42.83063232 171.05274506 43.90429688 171.29370117 C45.27563782 171.60775154 45.27563782 171.60775154 46.67468262 171.92814636 C49.29538285 172.2723801 50.64609018 172.10867297 53.125 171.25 C54.9186779 169.89638628 54.9186779 169.89638628 56.60516357 168.13059998 C57.2753804 167.46450714 57.94559723 166.79841431 58.63612366 166.11213684 C59.3604509 165.37702377 60.08477814 164.64191071 60.83105469 163.88452148 C61.60217087 163.11384338 62.37328705 162.34316528 63.16777039 161.5491333 C65.71797916 158.99683244 68.25739418 156.43406526 70.796875 153.87109375 C72.56170332 152.10067101 74.3271946 150.3309089 76.09332275 148.56178284 C80.26720574 144.37761092 84.4343551 140.18681067 88.59830117 135.99275595 C93.80479949 130.74943091 99.02166392 125.51645743 104.23828125 120.28320312 C113.54220523 110.94709332 122.83685565 101.60180714 132.125 92.25 C134.125 93.25 134.125 93.25 135.34375 96.828125 C135.77924571 98.38308513 136.20592529 99.9405341 136.625 101.5 C136.83769531 102.24507813 137.05039062 102.99015625 137.26953125 103.7578125 C140.60620961 115.9172416 141.50289084 127.95660284 141.4375 140.5 C141.43476578 141.59016922 141.43476578 141.59016922 141.43197632 142.70236206 C141.38642278 153.49291225 140.93606458 163.77342197 138.125 174.25 C137.95339355 174.90097656 137.78178711 175.55195313 137.60498047 176.22265625 C127.6074173 213.31817214 104.09992521 244.3064457 70.90649414 263.63012695 C49.35465747 275.67064537 25.88590576 281.38708372 1.3125 281.5 C-0.30688477 281.5309375 -0.30688477 281.5309375 -1.95898438 281.5625 C-12.12314186 281.60958353 -12.12314186 281.60958353 -17.20616817 279.870821 C-23.4490453 277.92265213 -29.4483466 276.51758261 -35.52841306 279.59148932 C-42.254028 284.3539654 -47.89183056 290.36420459 -53.54997766 296.31410456 C-56.15873262 299.03112206 -58.83454227 301.68070207 -61.50259399 304.33927917 C-66.11033386 308.94859653 -70.67444346 313.59768906 -75.21129036 318.2767601 C-81.78026909 325.05116321 -88.41452415 331.75851623 -95.06642347 338.45139851 C-105.87119186 349.3259234 -116.6251284 360.24927786 -127.34643555 371.20605469 C-137.73484673 381.82235096 -148.14140396 392.42020883 -158.5769043 402.99023438 C-159.21958242 403.64121675 -159.86226055 404.29219913 -160.52441377 404.96290825 C-167.54826853 412.07665208 -174.576215 419.18634788 -181.60534573 426.29487801 C-183.47255747 428.18333209 -185.33973919 430.07181585 -187.20688427 431.96033584 C-188.43814249 433.20564531 -189.66946435 434.45089185 -190.90085083 435.6960745 C-198.71456636 443.59801799 -206.51047933 451.51696227 -214.28727639 459.45524096 C-218.21557905 463.46470314 -222.15073879 467.46740547 -226.08793307 471.46813504 C-229.19068872 474.62202482 -232.28461732 477.78421803 -235.37167633 480.95346921 C-237.69699665 483.33520668 -240.03588436 485.70348169 -242.37269592 488.07394409 C-243.17912995 488.90771824 -243.98556398 489.74149238 -244.8164354 490.60053241 C-253.16219183 499.01349173 -262.82798962 504.99034769 -273.875 509.25 C-275.12023437 509.73146484 -275.12023437 509.73146484 -276.390625 510.22265625 C-294.51613219 515.92000135 -315.08145007 512.9047333 -332 505.1875 C-350.36460977 495.4345434 -362.92303666 479.27451608 -369.25 459.5 C-374.22250326 439.19212955 -371.04299733 419.48976321 -361.55859375 401.17578125 C-353.20690696 387.95974333 -339.79554794 377.16159494 -328.71573019 366.31182265 C-324.48955576 362.17086538 -320.27154392 358.02157792 -316.05158803 353.87428558 C-314.36456338 352.21651109 -312.67718354 350.55909874 -310.9897635 348.90172672 C-302.7689618 340.82578124 -294.56581042 332.7321556 -286.37265015 324.62817383 C-285.77786506 324.03989512 -285.18307997 323.45161641 -284.57027109 322.84551108 C-279.05633141 317.39154207 -273.54367937 311.93627283 -268.03239942 306.47961617 C-264.26602673 302.75060331 -260.49905449 299.02219716 -256.73144531 295.29443359 C-256.10585918 294.6754461 -255.48027305 294.05645861 -254.83572976 293.41871393 C-244.68316019 283.37556758 -234.49213888 273.37229245 -224.28710993 263.38248873 C-213.78592389 253.10092415 -203.32903043 242.77581577 -192.91131437 232.40967941 C-186.49593427 226.02887809 -180.04857026 219.68440895 -173.55522417 213.38294941 C-169.1098302 209.06253348 -164.70813998 204.70057793 -160.33802475 200.30404323 C-157.81828878 197.77159363 -155.283935 195.26123421 -152.69555473 192.7988224 C-142.24104343 183.60194489 -142.24104343 183.60194489 -136.38701963 171.50647736 C-136.37529855 166.17380417 -137.57880586 161.40869912 -139.25714469 156.38066387 C-140.77697141 151.13956643 -140.31866924 145.53161119 -140.25 140.125 C-140.24057373 138.93414795 -140.23114746 137.7432959 -140.22143555 136.51635742 C-140.05723903 126.85362152 -139.15668402 117.63948907 -136.875 108.25 C-136.70871094 107.55438965 -136.54242188 106.8587793 -136.37109375 106.14208984 C-130.42189731 82.10843792 -118.6048414 61.35631104 -101.875 43.25 C-101.06417969 42.35667969 -100.25335938 41.46335938 -99.41796875 40.54296875 C-73.72581293 13.48738177 -36.73607121 0.03443643 0 0 Z M-316.875 413.25 C-317.44992187 413.70890625 -318.02484375 414.1678125 -318.6171875 414.640625 C-324.82633464 420.13025723 -328.05943325 427.12452764 -329.35546875 435.26953125 C-329.78528786 444.13309831 -326.91707175 452.45301589 -321.6875 459.625 C-313.72229294 467.05919325 -304.9819676 470.85996024 -294.09765625 470.6171875 C-284.92057611 469.57155655 -277.90568068 465.38117465 -271.71875 458.65625 C-266.36478504 451.668872 -264.31162905 443.98224967 -264.875 435.25 C-266.98381529 423.29408961 -272.60688732 416.5537579 -282.1875 409.5625 C-293.58389683 403.99681783 -306.95737055 405.31589644 -316.875 413.25 Z " fill="#000000" transform="translate(370.875,-0.24999999999999997)"/>
</svg>
