<?xml version="1.0" encoding="UTF-8"?>
<svg version="1.1" xmlns="http://www.w3.org/2000/svg" width="512" height="512">
<path d="M0 0 C1.02963867 0.20898926 2.05927734 0.41797852 3.12011719 0.63330078 C62.38935934 12.88545908 116.75711891 44.16615411 162.20385742 83.49072266 C163.55735866 84.62805372 164.93414059 85.73776378 166.3215332 86.83349609 C173.89293462 92.84695879 180.75364757 99.41365431 187.57299805 106.25732422 C189.45040869 108.13793066 191.340896 110.00469714 193.23242188 111.87109375 C194.44612173 113.08252313 195.65904098 114.29473519 196.87109375 115.5078125 C197.42840683 116.05591583 197.98571991 116.60401917 198.55992126 117.16873169 C203.98247122 122.65564441 207.57059076 127.87684202 207.625 135.875 C207.65851562 137.00679687 207.69203125 138.13859375 207.7265625 139.3046875 C205.72713591 149.47381413 196.7163229 156.71926566 189.6159668 163.72021484 C187.82491614 165.4877469 186.04748709 167.26814341 184.27148438 169.05078125 C178.21455654 175.09229237 172.06526417 180.78878643 165.3659668 186.11767578 C162.84750869 188.12131957 160.43293594 190.21438785 158.02294922 192.34545898 C137.70259585 210.25199673 114.61299577 224.86130919 91 238 C90.25492187 238.41846191 89.50984375 238.83692383 88.7421875 239.26806641 C46.79571982 262.6802608 -0.19414752 276.48185396 -48.3125 276.375 C-49.76390381 276.37368576 -49.76390381 276.37368576 -51.24462891 276.37234497 C-67.16042452 276.32496092 -82.39711631 275.37549573 -98 272 C-99.11616699 271.76394043 -100.23233398 271.52788086 -101.38232422 271.28466797 C-160.7178147 258.40442364 -214.38249941 227.89948079 -260.1394043 188.55761719 C-261.5211807 187.4008486 -262.92470941 186.26996117 -264.33911133 185.15332031 C-271.90433915 179.1445149 -278.75909442 172.58087942 -285.57299805 165.74267578 C-287.45040869 163.86206934 -289.340896 161.99530286 -291.23242188 160.12890625 C-292.44612173 158.91747687 -293.65904098 157.70526481 -294.87109375 156.4921875 C-295.42840683 155.94408417 -295.98571991 155.39598083 -296.55992126 154.83126831 C-301.98247122 149.34435559 -305.57059076 144.12315798 -305.625 136.125 C-305.65851563 134.99320313 -305.69203125 133.86140625 -305.7265625 132.6953125 C-303.72713591 122.52618587 -294.7163229 115.28073434 -287.6159668 108.27978516 C-285.82491614 106.5122531 -284.04748709 104.73185659 -282.27148438 102.94921875 C-276.2704427 96.96330041 -270.1716417 91.31097055 -263.52587891 86.03320312 C-261.06666739 84.05366383 -258.71909551 81.99315704 -256.37890625 79.875 C-252.06898612 76.00744144 -247.57726398 72.46209852 -242.9375 69 C-242.08679932 68.36481445 -241.23609863 67.72962891 -240.35961914 67.07519531 C-224.65384365 55.47280721 -208.34972569 44.68215649 -191.25048828 35.24267578 C-189.76566355 34.42278449 -188.28474774 33.59576855 -186.80810547 32.76123047 C-157.74182611 16.36237181 -125.70032025 5.36490579 -93 -1 C-92.2152832 -1.16371094 -91.43056641 -1.32742187 -90.62207031 -1.49609375 C-61.77349082 -7.34067829 -28.67803018 -6.06954742 0 0 Z M-123 69 C-142.21626197 89.74558386 -148.91746888 115.54774912 -148.34375 143.19140625 C-147.35555953 168.85965378 -134.51837943 192.57866743 -116 210 C-96.85241308 227.2334264 -71.54841189 236.79910848 -45.7265625 235.92285156 C-23.58164826 234.66294573 -3.26295066 227.06312024 14 213 C14.82757813 212.33613281 15.65515625 211.67226563 16.5078125 210.98828125 C34.62705778 195.62384285 46.68591065 173.5267733 50 150 C52.05235771 120.78901466 46.37049518 94.19651059 27.109375 71.51953125 C8.98966586 50.9660936 -14.87820177 38.76329662 -42.1875 36.1875 C-73.55016605 34.65840736 -100.97717991 47.03818495 -123 69 Z M-184.875 79.125 C-185.57753906 79.56803467 -186.28007812 80.01106934 -187.00390625 80.4675293 C-201.42778645 89.66338224 -215.18169301 99.6066008 -228.296875 110.58496094 C-230.6893181 112.572719 -233.130215 114.49882578 -235.5625 116.4375 C-242.69667106 122.26264885 -249.32192074 128.66438635 -256 135 C-254.67789665 137.95583107 -253.27958084 139.93870379 -250.91015625 142.13671875 C-250.29648193 142.7093042 -249.68280762 143.28188965 -249.05053711 143.87182617 C-248.39448486 144.47099854 -247.73843262 145.0701709 -247.0625 145.6875 C-246.38517822 146.31180908 -245.70785645 146.93611816 -245.01000977 147.5793457 C-239.51218382 152.61040577 -233.85308884 157.38648537 -228 162 C-226.9356834 162.85613159 -225.87190691 163.71293495 -224.80859375 164.5703125 C-212.57286636 174.38008182 -199.79178741 183.33227479 -186.5625 191.75 C-185.73919189 192.27585693 -184.91588379 192.80171387 -184.06762695 193.34350586 C-183.30409912 193.82311768 -182.54057129 194.30272949 -181.75390625 194.796875 C-181.07658447 195.22323242 -180.3992627 195.64958984 -179.70141602 196.08886719 C-178.027819 197.1573615 -178.027819 197.1573615 -176 197 C-177.45834875 192.57841071 -178.93084724 188.16491485 -180.5 183.78125 C-192.32011995 150.43411395 -190.53187603 115.89871733 -178.66308594 82.86035156 C-177.73405907 80.25387708 -176.86510199 77.62826223 -176 75 C-179.40976238 75 -182.06223326 77.3463586 -184.875 79.125 Z M78 75 C79.45834875 79.42158929 80.93084724 83.83508515 82.5 88.21875 C94.32011995 121.56588605 92.53187603 156.10128267 80.66308594 189.13964844 C79.73405907 191.74612292 78.86510199 194.37173777 78 197 C82.43239747 195.42666807 86.29271477 193.12456844 90.25 190.625 C90.94673828 190.18583252 91.64347656 189.74666504 92.36132812 189.29418945 C105.65281876 180.8296242 118.13962241 171.52077708 130.24853516 161.44726562 C132.66107287 159.45374408 135.11591065 157.51398929 137.5625 155.5625 C144.69667106 149.73735115 151.32192074 143.33561365 158 137 C156.67789665 134.04416893 155.27958084 132.06129621 152.91015625 129.86328125 C151.98964478 129.00440308 151.98964478 129.00440308 151.05053711 128.12817383 C150.39448486 127.52900146 149.73843262 126.9298291 149.0625 126.3125 C148.38517822 125.68819092 147.70785645 125.06388184 147.01000977 124.4206543 C141.51218382 119.38959423 135.85308884 114.61351463 130 110 C128.9356834 109.14386841 127.87190691 108.28706505 126.80859375 107.4296875 C114.57286636 97.61991818 101.79178741 88.66772521 88.5625 80.25 C87.73919189 79.72414307 86.91588379 79.19828613 86.06762695 78.65649414 C85.30409912 78.17688232 84.54057129 77.69727051 83.75390625 77.203125 C83.07658447 76.77676758 82.3992627 76.35041016 81.70141602 75.91113281 C80.027819 74.8426385 80.027819 74.8426385 78 75 Z " fill="#000000" transform="translate(305,200)"/>
<path d="M0 0 C12.67509386 9.86461049 22.25717381 22.85371895 25 39 C26.57180562 56.85760429 24.19779234 73.18170456 12.9296875 87.66015625 C2.76123891 99.40524582 -10.56873812 108.81779591 -26.48803711 110.21899414 C-45.03223705 111.03774903 -60.82828565 108.17326778 -75.25 95.6875 C-86.44897541 85.03784143 -94.63903909 71.64752094 -95.3359375 55.86328125 C-95.64604179 36.81572149 -91.79590446 21.43138372 -78.33984375 7.28125 C-57.12005776 -13.40715571 -24.74166717 -16.54346244 0 0 Z M-52 39.5625 C-54.91388882 44.80551763 -54.95610282 50.17717706 -54 56 C-52.04435326 61.44530996 -48.40701267 65.34964702 -43.37109375 68.1484375 C-37.89747817 70.11425002 -32.10252183 70.11425002 -26.62890625 68.1484375 C-21.59298733 65.34964702 -17.95564674 61.44530996 -16 56 C-15.04389718 50.17717706 -15.08611118 44.80551763 -18 39.5625 C-21.70529004 34.6186729 -25.73267371 31.53649234 -31.90234375 30.5234375 C-40.74979717 30.09947378 -46.65836177 32.43535595 -52 39.5625 Z " fill="#000000" transform="translate(291,286)"/>
<path d="M0 0 C5.55353962 2.49385364 9.19274981 6.10909644 11.8046875 11.6640625 C12.74544378 14.45332236 13.0278038 16.67983613 13.0703125 19.6171875 C13.09867187 20.50019531 13.12703125 21.38320312 13.15625 22.29296875 C11.96107174 30.10214199 7.17508034 35.40847962 1.69921875 40.76171875 C0.6933799 41.76618294 0.6933799 41.76618294 -0.33277893 42.79093933 C-1.74258932 44.19474359 -3.15722133 45.59372073 -4.57641602 46.98803711 C-6.74296534 49.11795218 -8.89295848 51.26356175 -11.04101562 53.41210938 C-12.41832925 54.77959484 -13.79655373 56.14616364 -15.17578125 57.51171875 C-15.81551376 58.14922562 -16.45524628 58.78673248 -17.11436462 59.44355774 C-22.92670006 65.13378387 -27.78967465 68.36713138 -36.0546875 68.6171875 C-41.27319025 68.53277054 -45.14577202 67.51960931 -49.3046875 64.3046875 C-53.9334682 59.2926962 -56.4319654 55.02889649 -56.6171875 48.1171875 C-56.65457031 47.21613281 -56.69195312 46.31507813 -56.73046875 45.38671875 C-55.65344756 37.5906663 -50.83685086 32.23616429 -45.4140625 26.8828125 C-44.75061829 26.21554138 -44.08717407 25.54827026 -43.40362549 24.86077881 C-42.00657801 23.46102491 -40.60452868 22.066247 -39.19775391 20.67626953 C-37.06061191 18.56055251 -34.94566365 16.42433104 -32.83203125 14.28515625 C-31.46482224 12.92059074 -30.09637279 11.55726671 -28.7265625 10.1953125 C-28.10231384 9.56296692 -27.47806519 8.93062134 -26.8348999 8.27911377 C-19.17143344 0.77479968 -10.7853342 -3.25388049 0 0 Z " fill="#000000" transform="translate(433.3046875,106.6953125)"/>
<path d="M0 0 C1.32451172 -0.04253906 1.32451172 -0.04253906 2.67578125 -0.0859375 C10.48495449 1.10924076 15.79129212 5.89523216 21.14453125 11.37109375 C22.14899544 12.3769326 22.14899544 12.3769326 23.17375183 13.40309143 C24.57755609 14.81290182 25.97653323 16.22753383 27.37084961 17.64672852 C29.50076468 19.81327784 31.64637425 21.96327098 33.79492188 24.11132812 C35.16240734 25.48864175 36.52897614 26.86686623 37.89453125 28.24609375 C38.85079155 29.20569252 38.85079155 29.20569252 39.82637024 30.18467712 C45.51659637 35.99701256 48.74994388 40.85998715 49 49.125 C48.91558304 54.34350275 47.90242181 58.21608452 44.6875 62.375 C38.85830802 67.75849923 34.15550381 69.70818557 26.2421875 69.58203125 C14.58798743 68.63757773 5.47104339 56.39750132 -2.37744141 48.60522461 C-3.50354535 47.49070475 -4.63411852 46.38068305 -5.76904297 45.27514648 C-19.26020898 32.13165089 -19.26020898 32.13165089 -20.84375 23.46875 C-20.75970513 16.49302591 -19.75288332 11.06987742 -14.88671875 5.84375 C-10.37217531 1.8308225 -5.98914941 0.08667365 0 0 Z " fill="#000000" transform="translate(86.3125,105.625)"/>
<path d="M0 0 C4.86378685 3.00362996 8.15005075 6.4963896 10.234375 11.89453125 C10.83369362 15.95526885 10.84262872 19.97457197 10.8359375 24.07421875 C10.84450775 25.24155548 10.853078 26.40889221 10.86190796 27.61160278 C10.87336387 30.07421278 10.87441767 32.53689043 10.86572266 34.99951172 C10.85940644 38.75085907 10.90633599 42.49904274 10.95703125 46.25 C10.96157829 48.64973563 10.96298374 51.04947969 10.9609375 53.44921875 C10.97935699 54.56199188 10.99777649 55.67476501 11.01675415 56.82125854 C10.92767235 64.38572193 9.28652106 69.19792454 4.234375 74.89453125 C-1.13293231 79.47910624 -6.35698941 79.6208349 -13.3125 79.40625 C-18.49320931 78.63852045 -22.19051317 76.71646043 -25.765625 72.89453125 C-30.30038135 66.64885754 -30.37955428 61.29185395 -30.3671875 53.71484375 C-30.37575775 52.54750702 -30.384328 51.38017029 -30.39315796 50.17745972 C-30.40461387 47.71484972 -30.40566767 45.25217207 -30.39697266 42.78955078 C-30.39065644 39.03820343 -30.43758599 35.29001976 -30.48828125 31.5390625 C-30.49282829 29.13932687 -30.49423374 26.73958281 -30.4921875 24.33984375 C-30.51060699 23.22707062 -30.52902649 22.11429749 -30.54800415 20.96780396 C-30.45892235 13.40334057 -28.81777106 8.59113796 -23.765625 2.89453125 C-17.29271618 -2.6344117 -7.84970384 -3.13766411 0 0 Z " fill="#000000" transform="translate(265.765625,37.10546875)"/>
</svg>
